<?xml version="1.0" encoding="utf-8"?>
<!-- Svg Vector Icons : http://www.onlinewebfonts.com/icon -->
<!DOCTYPE svg PUBLIC "-//W3C//DTD SVG 1.1//EN" "http://www.w3.org/Graphics/SVG/1.1/DTD/svg11.dtd">
<svg version="1.1" xmlns="http://www.w3.org/2000/svg" xmlns:xlink="http://www.w3.org/1999/xlink" x="0px" y="0px" viewBox="0 0 1000 1000" enable-background="new 0 0 1000 1000" xml:space="preserve">
<metadata> Svg Vector Icons : http://www.onlinewebfonts.com/icon </metadata>
<g><path d="M500,10C229.4,10,10,229.4,10,500c0,270.6,219.4,490,490,490c270.6,0,490-219.4,490-490C990,229.4,770.6,10,500,10z M499.3,907.4C273.8,907.4,91,724.5,91,499C91,273.5,273.8,90.7,499.3,90.7c225.5,0,408.3,182.8,408.3,408.3C907.7,724.5,724.9,907.4,499.3,907.4z" fill="white" /><path d="M730.2,306.9c-12.6,0-23.8,5.7-31.3,14.6L426.2,594.1L299.6,467.4l0,0c-7.5-7.8-18-12.7-29.7-12.7c-22.7,0-41.1,18.4-41.1,41.1c0,11.8,5,22.5,13,30l126.4,126.4l-0.1,0.1l26.9,26.9c7.5,8.5,18.5,13.9,30.8,13.9c11.6,0,22.1-4.8,29.6-12.6h0.1l300.7-300.7c9.3-7.5,15.2-19,15.2-31.9C771.3,325.3,752.9,306.9,730.2,306.9z" fill="white" /></g>
</svg>